<?xml version="1.0" encoding="UTF-8" standalone="no"?>
<!-- Created with Inkscape (http://www.inkscape.org/) -->

<svg
   width="512"
   height="512"
   viewBox="0 0 135.46666 135.46667"
   version="1.1"
   id="svg5"
   inkscape:version="1.1.1 (3bf5ae0d25, 2021-09-20)"
   sodipodi:docname="Menu_Icon_Laser.svg"
   inkscape:export-filename="\\raspberrypi\cvgpi\cancer-goggles\DNH\HMDOpView\SrcAssets\Menu_Icon_Laser.png"
   inkscape:export-xdpi="96.000008"
   inkscape:export-ydpi="96.000008"
   xmlns:inkscape="http://www.inkscape.org/namespaces/inkscape"
   xmlns:sodipodi="http://sodipodi.sourceforge.net/DTD/sodipodi-0.dtd"
   xmlns="http://www.w3.org/2000/svg"
   xmlns:svg="http://www.w3.org/2000/svg">
  <sodipodi:namedview
     id="namedview7"
     pagecolor="#000000"
     bordercolor="#666666"
     borderopacity="1.0"
     inkscape:pageshadow="2"
     inkscape:pageopacity="0"
     inkscape:pagecheckerboard="0"
     inkscape:document-units="mm"
     showgrid="false"
     units="px"
     inkscape:snap-bbox="true"
     inkscape:bbox-paths="true"
     inkscape:bbox-nodes="true"
     inkscape:snap-bbox-edge-midpoints="true"
     inkscape:snap-bbox-midpoints="true"
     inkscape:object-paths="true"
     inkscape:snap-intersection-paths="true"
     inkscape:snap-smooth-nodes="true"
     inkscape:snap-midpoints="true"
     inkscape:snap-object-midpoints="true"
     inkscape:snap-center="true"
     inkscape:snap-text-baseline="true"
     inkscape:snap-page="true"
     inkscape:snap-global="false"
     inkscape:zoom="0.51780096"
     inkscape:cx="-71.456028"
     inkscape:cy="377.5582"
     inkscape:window-width="2560"
     inkscape:window-height="1017"
     inkscape:window-x="2552"
     inkscape:window-y="-8"
     inkscape:window-maximized="1"
     inkscape:current-layer="layer1" />
  <defs
     id="defs2" />
  <g
     inkscape:label="Layer 1"
     inkscape:groupmode="layer"
     id="layer1">
    <path
       id="path1244"
       style="fill:#ffffff;fill-opacity:1;stroke:#000000;stroke-width:0.264999;stroke-opacity:1;stop-color:#000000"
       d="m 68.656227,17.534262 c -2.32579,0.0011 -4.5336,1.110817 -5.721642,3.110278 h -0.0031 l -23.438122,40.595937 -4.721417,8.177282 h 6.909933 C 41.09266,68.737612 40.89423,67.764977 41.263256,66.874075 l 0.101218,-0.244368 c 0.520922,-1.257616 1.952688,-1.849961 3.210301,-1.329039 l 7.289661,3.019239 a 19.422968,19.422968 0 0 1 1.357191,-2.014224 l -5.585684,-5.586282 c -0.962536,-0.962536 -0.962536,-2.512497 0,-3.475034 l 0.186867,-0.186866 c 0.96254,-0.96254 2.512494,-0.96254 3.475031,0 l 5.586284,5.585683 a 19.422968,19.422968 0 0 1 2.014225,-1.35719 l -3.01924,-7.289659 c -0.520922,-1.257613 0.07143,-2.689382 1.32904,-3.210301 l 0.244966,-0.101819 c 1.25761,-0.520922 2.689379,0.07263 3.210301,1.330239 l 3.023431,7.30044 a 19.422968,19.422968 0 0 1 2.379577,-0.477352 v -7.89818 c 0,-1.361229 1.096803,-2.456839 2.458035,-2.456839 h 0.26473 c 1.361235,0 2.456839,1.09561 2.456839,2.456839 v 7.889793 a 19.422968,19.422968 0 0 1 2.384367,0.473761 l 3.018641,-7.288462 c 0.520922,-1.257613 1.953286,-1.851161 3.210903,-1.330239 l 0.244364,0.101819 c 1.257616,0.520919 1.851161,1.952688 1.330239,3.210301 l -3.019838,7.289659 a 19.422968,19.422968 0 0 1 2.020812,1.350603 l 5.579096,-5.579096 c 0.96254,-0.96254 2.512491,-0.96254 3.475031,0 l 0.18687,0.186866 c 0.962533,0.962537 0.962533,2.512498 0,3.475034 l -5.579097,5.579097 a 19.422968,19.422968 0 0 1 1.350601,2.021409 l 7.289661,-3.019239 c 1.25761,-0.520922 2.689379,0.07143 3.210301,1.329039 l 0.101819,0.244368 c 0.520919,1.257613 -0.07262,2.68998 -1.330238,3.210899 l -7.288463,3.018641 a 19.422968,19.422968 0 0 1 0.473759,2.384367 h 7.889795 c 1.361232,0 2.456839,1.096806 2.456839,2.458039 v 0.264729 c 0,1.361229 -1.095607,2.456839 -2.456839,2.456839 h -7.898179 a 19.422968,19.422968 0 0 1 -0.477353,2.379574 l 7.300441,3.023435 c 1.257616,0.520919 1.851157,1.953289 1.330238,3.210899 l -0.101819,0.244368 c -0.520922,1.25761 -1.952691,1.851157 -3.210301,1.330238 l -7.289661,-3.01984 a 19.422968,19.422968 0 0 1 -1.357191,2.013626 l 5.585687,5.586281 c 0.962533,0.962537 0.962533,2.512501 0,3.475031 l -0.18687,0.18687 c -0.96254,0.962539 -2.512491,0.962539 -3.475031,0 l -5.586284,-5.585683 a 19.422968,19.422968 0 0 1 -2.013624,1.35719 l 3.019838,7.289662 c 0.520922,1.25761 -0.07262,2.68938 -1.330239,3.2103 l -0.244364,0.10182 c -1.257617,0.52092 -2.689981,-0.0726 -3.210903,-1.33024 l -3.023431,-7.300442 a 19.422968,19.422968 0 0 1 -2.379577,0.477352 v 7.89818 c 0,1.36123 -1.095604,2.45684 -2.456839,2.45684 h -0.26473 c -1.361232,0 -2.458035,-1.09561 -2.458035,-2.45684 v -7.89818 a 19.422968,19.422968 0 0 1 -2.379577,-0.477352 l -3.023431,7.300442 c -0.520922,1.25761 -1.952691,1.85116 -3.210301,1.33024 l -0.244966,-0.10182 c -1.257616,-0.52092 -1.849962,-1.95269 -1.32904,-3.2103 l 3.01924,-7.289662 a 19.422968,19.422968 0 0 1 -2.014225,-1.35719 l -5.586284,5.585683 c -0.962537,0.962539 -2.512491,0.962539 -3.475031,0 l -0.186867,-0.18687 c -0.962536,-0.96253 -0.962536,-2.512494 0,-3.475031 l 5.585684,-5.586281 a 19.422968,19.422968 0 0 1 -1.357191,-2.013626 l -7.289661,3.01984 c -1.257613,0.520919 -2.689379,-0.07263 -3.210301,-1.330238 l -0.101218,-0.244368 c -0.492176,-1.188211 0.01797,-2.522595 1.135583,-3.106685 H 25.097353 L 16.44032,101.16979 c -0.761376,1.10166 -1.099291,2.54255 -1.099648,3.88171 -2.78e-4,3.6428 2.892797,6.70025 6.535597,6.70031 h 46.779958 46.707483 c 3.64304,2.6e-4 6.60895,-3.05728 6.60867,-6.70031 -2.8e-4,-1.28817 -0.31309,-2.66845 -1.02119,-3.74455 L 97.819058,61.240477 74.438961,20.745163 c -1.19082,-1.991651 -3.462234,-3.210993 -5.782734,-3.210901 z" />
    <circle
       style="fill:#ffffff;fill-opacity:1;stroke:#000000;stroke-width:0.264998;stroke-opacity:1;stop-color:#000000"
       id="circle2742"
       cx="68.656288"
       cy="78.07782"
       r="10.157667" />
    <path
       id="path2907"
       style="fill:none;fill-opacity:1;stroke:#ffffff;stroke-width:4.31401;stroke-miterlimit:4;stroke-dasharray:none;stroke-opacity:1;stop-color:#000000"
       sodipodi:type="inkscape:offset"
       inkscape:radius="7.0180531"
       inkscape:original="M 68.259766 23.482422 C 65.995318 23.573382 63.855436 24.97649 62.902344 27.025391 C 49.509164 50.235507 36.091454 73.434633 22.714844 96.652344 C 21.443291 99.376507 22.250789 102.9462 24.759766 104.67969 C 26.133764 105.72967 27.914767 105.91755 29.587891 105.82031 C 56.152516 105.81331 82.717068 105.83355 109.28125 105.81055 C 112.51446 105.69163 115.24809 102.71179 115.17969 99.494141 C 115.22559 97.915235 114.5821 96.433696 113.72461 95.142578 C 100.47096 72.20109 87.242716 49.244164 73.972656 26.3125 C 72.760697 24.430234 70.481773 23.342524 68.259766 23.482422 z "
       d="m 67.902344,16.484375 c -4.945951,0.22656 -9.243957,3.024079 -11.363282,7.580078 l 0.285157,-0.546875 C 43.433372,46.72365 30.015289,69.923935 16.634766,93.148438 a 7.0187549,7.0187549 0 0 0 -0.279297,0.535156 c -2.728756,5.84606 -1.222398,12.768446 4.322265,16.677736 3.327092,2.45246 6.876066,2.60667 9.316407,2.46484 l -0.404297,0.0117 c 26.559827,-0.007 53.125468,0.0132 79.697266,-0.01 a 7.0187549,7.0187549 0 0 0 0.25195,-0.004 c 7.33162,-0.26966 12.70896,-6.10559 12.64453,-13.306642 0.0518,-3.520235 -1.3055,-6.288693 -2.61328,-8.257812 l 0.23047,0.373046 C 106.54976,68.695869 93.321255,45.736005 80.046875,22.796875 A 7.0187549,7.0187549 0 0 0 79.873047,22.513672 C 77.175591,18.324315 72.669755,16.212717 67.902344,16.484375 Z"
       transform="matrix(1.1590134,0,0,1.1590134,-10.909529,-10.282159)" />
    <circle
       style="fill:#ffffff;fill-opacity:1;stroke:none;stroke-width:5;stroke-miterlimit:4;stroke-dasharray:none;stroke-opacity:1;stop-color:#000000"
       id="path3248"
       cx="68.656227"
       cy="78.077782"
       r="10.157632" />
    <rect
       style="fill:#ffffff;fill-opacity:1;stroke:none;stroke-width:5;stroke-miterlimit:4;stroke-dasharray:none;stroke-opacity:1;stop-color:#000000"
       id="rect3462"
       width="50.580746"
       height="7.5777254"
       x="19.609745"
       y="74.007584" />
  </g>
</svg>
