/* XPM */
static const char * video_25x23[] = {
/* columns rows colors chars-per-pixel */
"25 23 2 1 ",
"  c None",
". c black",
/* pixels */
"   ...................   ",
" ....................... ",
" ..   .     ..     .  .. ",
"..   ..     .     .    ..",
"..   .     ..     .    ..",
".........................",
".........................",
".                       .",
".                       .",
".                       .",
".         ..            .",
".         ...           .",
".         .....         .",
".         ......        .",
".         ......        .",
".         .....         .",
".         ....          .",
".         ..            .",
"..                     ..",
"..                     ..",
" ..                   .. ",
" ....................... ",
"   ...................   "
};
