<?xml version="1.0" encoding="UTF-8" standalone="no"?>
<!-- Created with Inkscape (http://www.inkscape.org/) -->

<svg
   width="210mm"
   height="297mm"
   viewBox="0 0 210 297"
   version="1.1"
   id="svg5"
   xml:space="preserve"
   inkscape:version="1.2.1 (9c6d41e410, 2022-07-14)"
   sodipodi:docname="MousePad.svg"
   xmlns:inkscape="http://www.inkscape.org/namespaces/inkscape"
   xmlns:sodipodi="http://sodipodi.sourceforge.net/DTD/sodipodi-0.dtd"
   xmlns="http://www.w3.org/2000/svg"
   xmlns:svg="http://www.w3.org/2000/svg"><sodipodi:namedview
     id="namedview7"
     pagecolor="#ffffff"
     bordercolor="#666666"
     borderopacity="1.0"
     inkscape:pageshadow="2"
     inkscape:pageopacity="0.0"
     inkscape:pagecheckerboard="0"
     inkscape:deskcolor="#d1d1d1"
     inkscape:document-units="mm"
     showgrid="false"
     showguides="true"
     inkscape:zoom="1.4752525"
     inkscape:cx="421.28381"
     inkscape:cy="1022.8757"
     inkscape:window-width="2560"
     inkscape:window-height="1017"
     inkscape:window-x="-8"
     inkscape:window-y="-8"
     inkscape:window-maximized="1"
     inkscape:current-layer="layer1"
     inkscape:showpageshadow="2" /><defs
     id="defs2" /><g
     inkscape:label="Layer 1"
     inkscape:groupmode="layer"
     id="layer1"><path
       id="circle2344"
       style="fill:#000000;fill-opacity:1;stroke:#000000;stroke-width:0.264998;stroke-dasharray:none;stroke-opacity:1;stop-color:#000000"
       d="M 96.578294,96.49833 A 25.037006,25.037006 0 0 0 71.542098,121.53661 H 121.61657 A 25.037006,25.037006 0 0 0 96.578294,96.49833 Z" /><path
       id="path1433"
       style="fill:#ffffff;fill-opacity:1;stroke:#000000;stroke-width:0.265;stroke-dasharray:none;stroke-opacity:1;stop-color:#000000"
       d="M 62.187602,54.11865 A 29.262889,29.262889 0 0 0 32.928034,83.38237 v 17.17672 h 0.0352 a 20.039833,20.039833 0 0 0 -0.0352,0.9382 20.039833,20.039833 0 0 0 20.038848,20.03888 h 9.22072 13.413652 a 20.978039,20.978039 0 0 1 20.97704,-20.97708 V 54.11865 H 62.18967 Z" /><path
       id="path1433-1"
       style="fill:#ffffff;fill-opacity:1;stroke:#000000;stroke-width:0.265;stroke-dasharray:none;stroke-opacity:1;stop-color:#000000"
       d="m 62.188402,147.04213 a 29.262889,29.262889 0 0 0 -29.259568,29.26372 v 17.17672 h 0.0352 a 20.039833,20.039833 0 0 0 -0.0352,0.9382 20.039833,20.039833 0 0 0 20.038848,20.03888 h 9.22072 13.413652 A 20.978039,20.978039 0 0 1 96.579098,193.48257 V 147.04213 H 62.19047 Z"
       inkscape:export-filename="Mousepad_Left.png"
       inkscape:export-xdpi="96"
       inkscape:export-ydpi="96" /><path
       id="path1433-8"
       style="fill:#ffffff;fill-opacity:1;stroke:#000000;stroke-width:0.264998;stroke-dasharray:none;stroke-opacity:1;stop-color:#000000"
       d="m 130.96977,54.11953 a 29.262889,29.262889 0 0 1 29.2596,29.26372 v 17.17672 h -0.036 a 20.039833,20.039833 0 0 1 0.036,0.9382 20.039833,20.039833 0 0 1 -20.03884,20.03888 h -9.22076 -13.4136 A 20.978039,20.978039 0 0 0 96.579098,100.55997 V 54.11953 h 34.388632 z" /><circle
       style="fill:#ffffff;fill-opacity:1;stroke:#000000;stroke-width:0.264998;stroke-dasharray:none;stroke-opacity:1;stop-color:#000000"
       id="circle1583"
       cx="96.579109"
       cy="121.53616"
       r="18.062012" /><circle
       style="fill:#ffffff;fill-opacity:1;stroke:#000000;stroke-width:0.264998;stroke-dasharray:none;stroke-opacity:1;stop-color:#000000"
       id="circle3837"
       cx="96.579109"
       cy="290.86966"
       r="18.062012"
       inkscape:export-filename=".\Mousepad_MiddleBall.png"
       inkscape:export-xdpi="96"
       inkscape:export-ydpi="96" /><circle
       style="fill:#000000;fill-opacity:1;stroke:none;stroke-width:0.264998;stroke-dasharray:none;stroke-opacity:1;stop-color:#000000"
       id="circle3837-1"
       cx="171.45653"
       cy="290.86966"
       r="21.110924"
       inkscape:export-filename=".\Mousepad_MiddleBall.png"
       inkscape:export-xdpi="96"
       inkscape:export-ydpi="96" /><path
       id="path3839"
       style="fill:#000000;fill-opacity:1;stroke:#000000;stroke-width:0.264998;stroke-dasharray:none;stroke-opacity:1;stop-color:#000000"
       d="M 96.578294,234.08169 A 25.037006,25.037006 0 0 0 71.542098,259.11997 H 121.61657 A 25.037006,25.037006 0 0 0 96.578294,234.08169 Z"
       inkscape:export-filename=".\Crevice.png"
       inkscape:export-xdpi="96"
       inkscape:export-ydpi="96" /><path
       id="path3858"
       style="fill:#ffffff;fill-opacity:1;stroke:#000000;stroke-width:0.264998;stroke-dasharray:none;stroke-opacity:1;stop-color:#000000"
       d="m 130.96977,-30.547178 a 29.262889,29.262889 0 0 1 29.2596,29.263708 v 17.17672 h -0.036 a 20.039833,20.039833 0 0 1 0.036,0.9382 20.039833,20.039833 0 0 1 -20.03884,20.03888 h -9.22076 -13.4136 A 20.978039,20.978039 0 0 0 96.579098,15.89325 v -46.440428 h 34.388632 z"
       inkscape:export-filename=".\Mousepad_Right.png"
       inkscape:export-xdpi="96"
       inkscape:export-ydpi="96" /><rect
       style="fill:#ffffff;fill-opacity:1;stroke:#000000;stroke-width:0.264999;stroke-dasharray:none;stroke-opacity:1;stop-color:#000000"
       id="rect3960"
       width="5.3804345"
       height="5.3804345"
       x="219.49503"
       y="16.078852"
       transform="rotate(45)"
       inkscape:export-filename="MouseDiamond.png"
       inkscape:export-xdpi="96"
       inkscape:export-ydpi="96" /></g></svg>
